<?xml version="1.0" encoding="UTF-8"?>
<!DOCTYPE svg PUBLIC "-//W3C//DTD SVG 1.1//EN" "http://www.w3.org/Graphics/SVG/1.1/DTD/svg11.dtd">
<!-- Creator: CorelDRAW X7 -->
<svg xmlns="http://www.w3.org/2000/svg" xml:space="preserve" width="3in" height="3in" version="1.1" style="shape-rendering:geometricPrecision; text-rendering:geometricPrecision; image-rendering:optimizeQuality; fill-rule:evenodd; clip-rule:evenodd"
viewBox="0 0 3000 3000"
 xmlns:xlink="http://www.w3.org/1999/xlink">
 <defs>
  <style type="text/css">
   <![CDATA[
    .fil0 {fill:#0C66AC}
   ]]>
  </style>
 </defs>
 <g id="Layer_x0020_1">
  <metadata id="CorelCorpID_0Corel-Layer"/>
  <path class="fil0" d="M480 812c-440,652 -340,1488 224,1868 563,380 1377,160 1816,-492 440,-652 340,-1488 -224,-1868 -563,-380 -1377,-160 -1816,492zm-177 835c397,197 661,-52 952,-327 54,-51 109,-103 165,-153l10 179c-27,25 -54,50 -80,75 -316,298 -603,569 -1040,384 -6,-52 -8,-105 -7,-158zm37 330c410,218 678,-36 975,-315 41,-39 82,-79 125,-117l9 180c-13,12 -26,25 -40,37 -307,291 -588,556 -1006,398 -26,-59 -47,-120 -63,-183zm189 396c335,101 575,-126 837,-373 31,-29 62,-58 93,-87l9 181 -7 7c-244,230 -471,445 -764,444 -64,-51 -120,-109 -168,-172zm1089 357c1,0 1,0 2,-1 314,-77 614,-282 824,-592 108,-161 181,-333 220,-507 -486,-122 -806,107 -1084,361l38 739zm1069 -1239c8,-58 11,-117 10,-175 -515,-166 -849,51 -1137,307l10 190c287,-247 622,-446 1117,-322zm0 -324c-9,-65 -22,-128 -40,-189 -496,-164 -826,27 -1106,269l10 200c290,-242 631,-427 1136,-280zm-103 -353c-78,-162 -194,-303 -348,-406 -221,-149 -484,-199 -744,-160 -1,0 -1,1 -3,1l43 824c272,-219 593,-377 1052,-259z"/>
 </g>
</svg>
